<?xml version="1.0" standalone="no"?>
<!DOCTYPE svg PUBLIC "-//W3C//DTD SVG 20010904//EN"
 "http://www.w3.org/TR/2001/REC-SVG-20010904/DTD/svg10.dtd">
<svg version="1.0" xmlns="http://www.w3.org/2000/svg"
 width="1024.000000pt" height="1024.000000pt" viewBox="0 0 1024.000000 1024.000000"
 preserveAspectRatio="xMidYMid meet">
<metadata>
Created by potrace 1.14, written by Peter Selinger 2001-2017
</metadata>
<g transform="translate(0.000000,1024.000000) scale(0.100000,-0.100000)"
fill="#000000" stroke="none">
<path d="M2085 10220 c-86 -21 -132 -41 -204 -87 -60 -38 -187 -163 -196 -194
-4 -11 -11 -19 -16 -19 -5 0 -9 -5 -9 -12 0 -6 -11 -35 -25 -64 -35 -73 -56
-173 -58 -270 -1 -45 -5 -85 -8 -88 -10 -10 -69 -14 -75 -5 -3 5 -13 6 -22 1
-9 -4 -37 -6 -62 -5 -25 2 -58 3 -75 3 -16 -1 -124 -2 -240 -4 -189 -3 -216
-5 -275 -26 -82 -29 -149 -63 -177 -89 -12 -12 -25 -21 -28 -21 -23 0 -175
-203 -181 -242 -1 -4 -2 -9 -4 -10 -3 -4 -9 -28 -25 -98 -13 -57 -15 -585 -14
-4260 l0 -4195 21 -80 c12 -44 24 -82 27 -85 3 -3 19 -31 35 -62 27 -53 96
-132 158 -184 14 -12 59 -38 99 -58 147 -71 -151 -66 3494 -63 1810 1 3297 5
3305 8 8 3 35 11 60 18 53 15 155 67 188 96 53 46 99 92 125 128 39 52 93 172
102 227 4 25 9 54 11 65 2 11 4 229 4 485 1 411 3 463 16 445 8 -11 20 -27 27
-36 6 -8 48 -69 92 -135 44 -65 82 -121 85 -124 3 -3 34 -48 70 -100 71 -105
96 -136 154 -189 21 -20 45 -42 52 -49 7 -6 17 -12 22 -12 5 0 17 -9 27 -20
10 -11 24 -20 32 -20 7 0 13 -5 13 -11 0 -5 4 -8 9 -5 5 3 14 -1 21 -9 7 -8
18 -15 25 -15 6 0 27 -7 45 -16 18 -9 70 -27 116 -39 69 -18 106 -22 206 -20
68 1 134 5 148 8 43 8 85 19 95 26 6 3 18 7 28 8 53 9 223 113 292 180 47 45
105 110 105 117 0 3 13 24 29 48 40 59 87 174 107 263 4 17 8 91 10 165 3 132
-4 179 -38 280 -7 19 -13 37 -13 40 -12 42 -216 360 -237 368 -4 2 -8 8 -8 13
0 11 -81 133 -92 137 -5 2 -8 8 -8 12 0 8 -117 187 -130 200 -14 14 -50 71
-50 80 0 5 -4 10 -9 10 -5 0 -13 9 -16 20 -3 11 -12 26 -18 33 -23 24 -77 105
-77 115 0 6 -4 12 -8 14 -5 1 -127 181 -273 398 -145 217 -266 397 -269 400
-3 3 -59 86 -125 184 -66 99 -126 185 -133 192 -7 7 -12 16 -12 19 1 8 -122
190 -132 193 -4 2 -8 8 -8 13 0 5 -38 65 -85 134 l-85 125 -3 2253 c-1 1238
-6 2262 -10 2275 -4 12 -9 30 -12 40 -10 41 -32 93 -43 104 -7 7 -12 18 -12
25 0 12 -75 109 -115 148 -30 30 -144 105 -158 105 -7 0 -22 6 -33 14 -11 8
-33 16 -49 19 -17 3 -37 8 -45 11 -8 3 -39 7 -68 9 -29 2 -55 7 -58 10 -4 3
-14 3 -23 -1 -9 -4 -36 -6 -61 -5 -25 2 -58 3 -75 2 -16 -1 -52 -1 -80 0 -27
1 -63 1 -80 0 -42 -1 -97 -2 -116 0 -12 1 -16 17 -17 82 -2 79 -25 215 -42
248 -4 9 -18 39 -31 66 -13 28 -30 56 -36 63 -7 7 -13 16 -13 20 0 12 -103
117 -145 149 -49 37 -180 105 -180 93 0 -1 -13 4 -30 10 -48 19 -94 25 -200
25 -188 0 -324 -61 -482 -214 -42 -41 -133 -202 -133 -235 0 -8 -5 -18 -10
-21 -6 -4 -8 -11 -5 -16 4 -5 3 -15 -2 -21 -10 -17 -13 -43 -17 -152 -2 -50
-8 -91 -15 -95 -6 -4 -30 -6 -53 -4 -24 2 -56 3 -73 2 -16 0 -52 -1 -80 0 -27
1 -63 1 -80 0 -26 -1 -87 0 -135 1 -8 1 -105 0 -215 -1 -110 0 -204 0 -210 1
-5 1 -14 1 -20 0 -12 -3 -606 -2 -620 0 -5 1 -14 1 -20 0 -5 -1 -86 -2 -180
-1 -93 1 -183 1 -200 0 -16 0 -52 -1 -80 0 -27 1 -63 1 -80 0 -16 -1 -52 -1
-80 0 -27 1 -63 1 -80 0 -16 -1 -52 -1 -80 0 -27 1 -63 1 -80 0 -129 -4 -238
-3 -242 4 -2 4 -12 3 -21 -1 -18 -9 -70 -7 -80 3 -3 3 -7 41 -8 83 -2 108 -23
221 -46 247 -4 5 -8 15 -8 21 0 54 -196 285 -254 300 -15 3 -26 10 -26 14 0 6
-70 41 -90 44 -3 1 -10 4 -15 8 -6 4 -38 13 -71 21 -86 19 -225 18 -309 -3z
m295 -331 c128 -59 196 -167 204 -325 4 -70 3 -76 -17 -84 -12 -4 -27 -4 -33
1 -6 5 -14 6 -17 2 -8 -8 -450 -8 -463 0 -6 3 -15 2 -22 -2 -14 -8 -122 -4
-131 5 -7 7 -8 134 -1 134 3 0 6 8 7 18 3 43 8 62 15 62 4 0 7 3 6 8 -5 13 45
86 81 120 20 18 62 45 94 61 79 38 194 38 277 0z m4061 -3 c64 -30 95 -56 137
-115 25 -34 57 -111 54 -128 -1 -2 3 -16 8 -33 5 -19 5 -32 -2 -36 -6 -4 -6
-10 0 -16 7 -7 7 -19 2 -33 -5 -14 -4 -27 3 -34 12 -12 14 -12 -31 -14 -19 -1
-36 1 -39 6 -2 4 -9 4 -15 0 -16 -9 -179 -10 -185 0 -2 4 -9 4 -15 1 -8 -5
-356 -9 -400 -5 -4 1 -5 42 -3 91 3 76 9 101 34 154 29 59 97 136 121 136 5 0
10 4 10 8 0 8 56 32 100 43 57 14 165 2 221 -25z m-3860 -742 c1 -8 2 -110 3
-226 2 -234 -5 -289 -49 -364 -30 -51 -92 -114 -112 -114 -7 0 -13 -4 -13 -9
0 -5 -10 -12 -22 -16 -13 -4 -27 -9 -33 -11 -106 -40 -249 -12 -339 66 -37 33
-103 120 -90 120 3 0 1 6 -5 14 -6 8 -13 28 -14 45 -1 17 -4 31 -7 31 -3 0 -5
22 -6 49 -1 81 -56 143 -138 157 -66 10 -131 -27 -165 -94 -24 -46 -8 -216 28
-297 43 -97 89 -175 102 -175 5 0 9 -5 9 -11 0 -9 87 -99 97 -99 2 0 14 -9 26
-21 24 -22 152 -88 183 -94 10 -2 19 -4 19 -5 0 -2 35 -10 80 -17 102 -15 260
-2 314 27 12 6 21 8 21 5 0 -8 93 41 149 79 129 86 229 233 267 392 13 54 17
125 18 324 l2 255 1859 2 c1293 1 1864 -2 1873 -9 8 -7 9 -14 2 -23 -5 -6 -7
-15 -3 -19 9 -8 10 -126 2 -126 -4 0 -3 -15 1 -34 4 -19 4 -40 -1 -47 -4 -7
-5 -17 -2 -23 7 -11 10 -136 3 -136 -3 0 -6 -24 -6 -53 -4 -155 -162 -299
-329 -300 -195 0 -328 124 -351 328 -7 69 -10 76 -38 111 -61 77 -171 80 -245
7 -22 -23 -40 -98 -35 -154 4 -52 11 -94 14 -94 1 0 3 -9 5 -19 26 -140 151
-313 285 -397 172 -107 381 -133 567 -70 105 35 212 104 273 175 14 16 35 40
48 55 52 60 126 247 131 331 5 95 4 410 -1 410 -4 0 -5 6 -2 13 3 8 6 27 7 43
l2 29 230 2 c261 3 326 -7 386 -58 19 -16 37 -29 40 -29 3 0 21 -28 40 -62
l34 -63 3 -2000 2 -2000 -136 205 c-146 219 -180 262 -225 281 -16 6 -29 15
-29 20 0 5 -6 9 -13 9 -7 0 -28 11 -48 24 -20 14 -53 34 -75 46 -21 12 -68 40
-104 62 -36 21 -72 43 -80 48 -150 91 -182 110 -186 110 -3 0 -24 13 -47 28
-23 15 -53 33 -67 40 -26 12 -35 18 -105 63 -22 14 -45 28 -50 30 -30 12 -462
275 -472 288 -11 14 -62 94 -106 166 -36 59 -83 84 -150 82 -60 -3 -94 -21
-131 -70 -22 -29 -34 -147 -16 -147 6 0 9 -4 7 -8 -1 -4 21 -44 49 -88 69
-107 72 -114 78 -165 3 -24 8 -55 10 -69 4 -21 30 -188 41 -265 2 -11 11 -69
20 -130 9 -60 19 -128 21 -149 3 -22 7 -43 9 -46 3 -6 18 -113 18 -137 0 -7 3
-13 6 -13 4 0 6 -12 6 -26 -1 -15 2 -49 7 -78 5 -28 11 -67 14 -86 2 -19 6
-46 9 -59 8 -43 19 -116 20 -131 1 -8 4 -31 8 -50 6 -34 13 -80 23 -149 10
-74 15 -95 37 -132 28 -49 628 -942 637 -949 4 -3 9 -10 11 -16 4 -12 321
-486 330 -494 3 -3 16 -23 29 -45 13 -22 27 -42 30 -45 4 -3 15 -20 25 -37 11
-18 23 -33 27 -33 4 0 8 -4 8 -10 0 -5 37 -64 83 -132 188 -278 271 -403 268
-407 -1 -2 1 -7 7 -10 5 -3 52 -71 105 -149 l97 -144 -2 -721 -3 -722 -23 -46
c-12 -26 -36 -61 -52 -78 -40 -42 -122 -83 -171 -86 -22 -1 -42 -5 -45 -8 -3
-3 -17 -2 -30 3 -14 6 -26 6 -29 0 -3 -6 -15 -6 -30 0 -15 6 -27 6 -30 0 -4
-7 -13 -7 -24 0 -10 5 -21 6 -25 3 -7 -7 -112 -7 -124 1 -4 2 -14 1 -22 -4 -8
-5 -22 -5 -32 1 -12 6 -25 6 -37 -1 -14 -7 -22 -7 -26 0 -4 7 -11 7 -18 2 -7
-5 -21 -6 -32 -2 -11 4 -30 4 -42 -1 -15 -5 -23 -5 -23 2 0 6 -7 6 -19 -1 -14
-7 -22 -7 -27 1 -4 7 -10 7 -16 1 -7 -7 -19 -7 -33 -2 -13 5 -25 7 -28 4 -8
-8 -88 -10 -93 -2 -3 4 -16 3 -29 -2 -15 -6 -27 -6 -30 0 -3 6 -15 6 -30 0
-15 -6 -25 -6 -25 0 0 5 -12 5 -30 0 -17 -5 -30 -5 -30 0 0 5 -13 5 -30 0 -17
-5 -30 -5 -30 0 0 5 -13 5 -30 0 -17 -5 -32 -5 -35 0 -3 5 -16 5 -30 0 -15 -6
-25 -6 -25 0 0 5 -12 5 -30 0 -17 -5 -30 -5 -30 0 0 5 -13 5 -30 0 -17 -5 -30
-5 -30 0 0 5 -13 5 -30 0 -16 -5 -32 -5 -34 -1 -6 8 -60 6 -75 -3 -5 -4 -13
-2 -16 4 -4 7 -11 8 -18 2 -7 -5 -21 -6 -32 -2 -11 4 -30 4 -42 -1 -15 -5 -23
-5 -23 2 0 6 -7 6 -19 -1 -14 -7 -22 -7 -27 1 -4 7 -10 7 -16 1 -7 -7 -19 -7
-33 -2 -13 5 -25 7 -28 4 -8 -8 -88 -10 -93 -2 -3 4 -16 3 -29 -2 -15 -6 -25
-6 -25 0 0 5 -12 5 -28 1 -15 -5 -37 -5 -49 0 -13 5 -25 4 -28 -1 -4 -6 -13
-7 -24 -1 -10 6 -23 6 -31 1 -8 -5 -21 -5 -30 0 -9 5 -22 5 -30 0 -8 -5 -21
-5 -30 0 -9 5 -22 5 -30 0 -8 -5 -21 -5 -31 0 -9 5 -19 6 -23 3 -7 -7 -112 -7
-124 1 -4 2 -14 1 -22 -4 -8 -5 -22 -5 -32 1 -12 6 -25 6 -37 -1 -14 -7 -22
-7 -26 0 -4 7 -11 7 -18 2 -7 -5 -21 -6 -32 -2 -11 4 -30 4 -42 -1 -15 -5 -23
-5 -23 2 0 6 -7 6 -19 -1 -14 -7 -22 -7 -27 1 -4 7 -10 7 -16 1 -7 -7 -19 -7
-33 -2 -13 5 -25 7 -28 4 -8 -8 -88 -10 -93 -2 -3 4 -16 3 -29 -2 -15 -6 -27
-6 -30 0 -3 6 -15 6 -30 0 -15 -6 -25 -6 -25 0 0 5 -12 5 -30 0 -17 -5 -30 -5
-30 0 0 5 -13 5 -30 0 -17 -5 -30 -5 -30 0 0 5 -13 5 -30 0 -17 -5 -32 -5 -35
0 -3 5 -16 5 -30 0 -15 -6 -25 -6 -25 0 0 5 -12 5 -30 0 -17 -5 -30 -5 -30 0
0 5 -13 5 -30 0 -17 -5 -30 -5 -30 0 0 5 -13 5 -30 0 -16 -5 -32 -5 -34 -1 -6
8 -60 6 -75 -3 -5 -4 -13 -2 -16 4 -4 7 -11 8 -18 2 -7 -5 -21 -6 -32 -2 -11
4 -30 4 -42 -1 -15 -5 -23 -5 -23 2 0 6 -7 6 -19 -1 -14 -7 -22 -7 -27 1 -4 7
-10 7 -16 1 -7 -7 -19 -7 -33 -2 -13 5 -25 7 -28 4 -8 -8 -88 -10 -93 -2 -3 4
-16 3 -29 -2 -15 -6 -25 -6 -25 0 0 5 -12 5 -28 1 -15 -5 -37 -5 -49 0 -13 5
-25 4 -28 -1 -4 -6 -13 -7 -24 -1 -10 6 -23 6 -31 1 -8 -5 -21 -5 -30 0 -9 5
-22 5 -30 0 -8 -5 -21 -5 -30 0 -9 5 -22 5 -30 0 -8 -5 -21 -5 -31 0 -9 5 -19
6 -23 3 -7 -7 -112 -7 -124 1 -4 2 -14 1 -22 -4 -8 -5 -22 -5 -32 1 -12 6 -25
6 -37 -1 -14 -7 -22 -7 -26 0 -4 7 -11 7 -18 2 -7 -5 -21 -6 -32 -2 -11 4 -30
4 -42 -1 -15 -5 -23 -5 -23 2 0 6 -7 6 -19 -1 -14 -7 -22 -7 -27 1 -4 7 -10 7
-16 1 -7 -7 -19 -7 -33 -2 -13 5 -25 7 -28 4 -8 -8 -88 -10 -93 -2 -3 4 -16 3
-29 -2 -15 -6 -27 -6 -30 0 -3 6 -15 6 -30 0 -15 -6 -25 -6 -25 0 0 5 -12 5
-30 0 -17 -5 -30 -5 -30 0 0 5 -13 5 -30 0 -17 -5 -30 -5 -30 0 0 5 -13 5 -30
0 -17 -5 -32 -5 -35 0 -3 5 -16 5 -30 0 -15 -6 -25 -6 -25 0 0 5 -12 5 -30 0
-17 -5 -30 -5 -30 0 0 5 -13 5 -30 0 -17 -5 -30 -5 -30 0 0 5 -13 5 -30 0 -16
-5 -32 -5 -34 -1 -6 8 -60 6 -75 -3 -5 -4 -13 -2 -16 4 -4 7 -11 8 -18 2 -7
-5 -21 -6 -32 -2 -11 4 -30 4 -42 -1 -15 -5 -23 -5 -23 2 0 6 -7 6 -19 -1 -14
-7 -22 -7 -27 1 -4 7 -10 7 -16 1 -7 -7 -19 -7 -33 -2 -13 5 -25 7 -28 4 -8
-8 -88 -10 -93 -2 -3 4 -16 3 -29 -2 -15 -6 -25 -6 -25 0 0 5 -12 5 -28 1 -15
-5 -37 -5 -49 0 -13 5 -25 4 -28 -1 -4 -6 -13 -7 -24 -1 -10 6 -23 6 -31 1 -8
-5 -21 -5 -30 0 -9 5 -22 5 -30 0 -8 -5 -21 -5 -30 0 -9 5 -22 5 -30 0 -8 -5
-21 -5 -31 0 -9 5 -19 6 -23 3 -7 -7 -112 -7 -124 1 -4 2 -14 1 -22 -4 -8 -5
-22 -5 -32 1 -12 6 -25 6 -37 -1 -14 -7 -22 -7 -26 0 -4 7 -11 7 -18 2 -7 -5
-21 -6 -32 -2 -11 4 -30 4 -42 -1 -13 -5 -25 -4 -29 2 -3 6 -10 6 -17 1 -7 -5
-21 -6 -32 -2 -11 4 -30 4 -41 -1 -12 -4 -25 -5 -28 -2 -3 3 -22 7 -42 9 -97
9 -195 94 -233 204 -3 8 -7 1899 -8 4201 -3 3782 -1 4190 13 4232 28 81 115
162 204 187 14 4 391 8 838 8 694 0 812 -2 813 -14z m3593 -3394 c4 1 84 -43
178 -99 94 -56 174 -101 179 -101 5 0 9 -4 9 -10 0 -5 6 -10 14 -10 7 0 19 -7
26 -15 7 -9 15 -13 18 -10 3 3 12 -1 21 -8 15 -13 278 -170 329 -196 13 -7 22
-17 20 -22 -3 -10 -669 -461 -674 -456 -2 1 -5 23 -8 47 -6 46 -11 77 -22 140
-4 19 -8 49 -9 65 -2 17 -5 46 -9 65 -20 119 -24 141 -32 205 -3 28 -10 69
-15 92 -5 24 -8 46 -7 50 1 5 -2 28 -7 53 -4 25 -9 54 -11 65 -1 11 -3 20 -4
20 -2 0 -6 31 -14 100 -3 29 -2 44 3 37 4 -8 11 -13 15 -12z m1079 -710 c9
-11 13 -20 9 -20 -4 0 1 -5 11 -11 9 -5 17 -14 17 -19 0 -6 23 -41 50 -80 28
-39 50 -73 50 -78 0 -4 13 -23 30 -42 16 -19 35 -47 41 -62 6 -16 15 -28 20
-28 5 0 9 -6 9 -14 0 -8 3 -16 8 -18 10 -4 212 -306 212 -317 0 -5 4 -11 8
-13 7 -2 84 -115 354 -517 10 -14 23 -36 29 -48 7 -13 16 -23 21 -23 4 0 8 -5
8 -10 0 -12 41 -73 53 -78 4 -2 7 -9 7 -15 0 -6 7 -19 17 -29 9 -10 21 -27 27
-38 6 -11 61 -93 121 -182 61 -90 112 -167 114 -173 2 -5 7 -12 10 -15 4 -3
44 -61 90 -130 321 -480 447 -665 453 -668 5 -2 8 -8 8 -13 0 -5 12 -27 28
-48 39 -56 67 -97 107 -160 43 -67 120 -177 129 -183 7 -5 7 -8 1 -8 -6 0 -6
-3 0 -8 14 -9 45 -59 45 -71 0 -5 -28 -27 -62 -49 -35 -22 -89 -59 -121 -81
-31 -23 -60 -41 -63 -41 -3 0 -12 -7 -21 -15 -8 -9 -54 -41 -101 -73 -236
-157 -337 -227 -356 -244 -11 -10 -26 -18 -33 -18 -7 0 -13 -3 -13 -7 0 -8
-61 -46 -64 -41 -1 2 -20 29 -42 62 -21 32 -43 65 -49 74 -5 8 -45 66 -87 129
-43 63 -78 118 -78 123 0 5 -4 10 -8 12 -4 2 -39 50 -77 108 -37 58 -73 108
-79 112 -6 4 -7 8 -2 8 5 0 0 10 -11 22 -11 13 -102 147 -203 298 -101 151
-198 296 -216 321 -19 26 -34 51 -34 57 0 6 -3 12 -7 14 -5 2 -57 77 -118 168
-60 91 -113 170 -118 175 -9 11 -127 188 -142 213 -30 50 -120 178 -129 184
-6 4 -7 8 -2 8 5 0 0 10 -10 23 -19 20 -634 936 -677 1006 l-18 29 48 33 c26
18 50 37 51 41 2 4 8 6 13 2 5 -3 9 0 9 5 0 6 6 11 14 11 8 0 16 4 18 8 2 5
104 76 228 159 124 83 275 184 335 226 61 42 112 76 115 76 3 1 13 -8 23 -19z
m2262 -3427 c11 -28 15 -182 5 -188 -5 -3 -7 -12 -3 -21 5 -13 -33 -132 -46
-144 -3 -3 -13 -18 -21 -34 -20 -39 -96 -116 -150 -152 -86 -58 -154 -77 -277
-80 -66 -2 -113 1 -113 7 0 5 -9 9 -20 9 -11 0 -37 7 -58 17 -20 9 -40 17 -44
17 -4 1 -16 9 -27 18 -11 9 -21 15 -23 13 -1 -2 -9 3 -16 11 -10 11 3 23 75
71 49 32 93 62 98 66 6 4 71 48 145 97 74 50 140 93 145 97 6 5 44 31 85 58
41 27 80 53 85 58 33 24 141 96 146 96 4 1 10 -7 14 -16z"/>
<path d="M1745 7443 c-37 -20 -63 -49 -79 -88 -9 -23 -12 -178 -12 -636 1
-584 2 -607 21 -647 14 -29 32 -47 64 -63 44 -22 45 -22 650 -22 675 0 653 -2
707 69 l29 37 1 624 c0 343 -3 626 -8 629 -4 3 -8 12 -8 21 0 9 -11 26 -26 39
-59 55 -33 53 -695 53 -542 0 -618 -2 -644 -16z m1061 -718 c0 -225 -3 -412
-7 -415 -4 -3 -191 -5 -416 -4 l-408 1 -1 409 c0 225 1 412 3 416 1 3 189 5
415 5 l413 -2 1 -410z"/>
<path d="M3941 7325 c-29 -13 -89 -65 -75 -65 2 0 -2 -10 -9 -22 -18 -29 -15
-94 7 -135 21 -42 70 -76 115 -79 20 -2 36 -3 36 -4 0 -1 35 -2 78 -3 42 -1
77 2 77 6 0 5 5 5 10 2 16 -10 110 -12 110 -2 0 4 5 5 10 2 16 -10 110 -12
110 -3 0 5 8 5 17 -1 10 -5 26 -5 40 0 14 5 23 5 23 -1 0 -8 38 -5 68 5 6 2
12 0 12 -5 0 -8 38 -5 68 5 6 2 12 0 12 -5 0 -8 38 -5 68 5 6 2 12 0 12 -5 0
-8 38 -5 68 5 6 2 12 0 12 -5 0 -8 38 -5 68 5 6 2 12 0 12 -5 0 -8 38 -5 68 5
6 2 12 0 12 -5 0 -8 38 -5 68 5 6 2 12 1 12 -3 0 -4 45 -7 100 -7 55 0 100 4
100 8 0 5 5 5 10 2 16 -10 110 -12 110 -2 0 4 5 5 10 2 16 -10 110 -12 110 -2
0 4 5 5 10 2 16 -10 110 -12 110 -2 0 4 5 5 10 2 16 -10 110 -12 110 -2 0 4 5
5 11 1 10 -6 80 -8 104 -4 6 1 18 1 28 0 23 -2 87 36 107 63 55 76 37 171 -44
231 -27 21 -35 21 -994 23 -836 2 -972 0 -1001 -12z"/>
<path d="M3958 6445 c-51 -16 -97 -55 -102 -87 -1 -7 -4 -18 -8 -23 -8 -14 -2
-74 11 -105 15 -37 31 -53 76 -76 39 -20 53 -20 610 -19 637 1 615 -1 665 72
19 28 25 49 25 92 -1 63 -24 104 -78 136 -31 19 -58 20 -599 20 -366 1 -578
-3 -600 -10z"/>
<path d="M1763 5019 c-39 -11 -84 -57 -99 -101 -15 -45 -12 -1233 3 -1268 15
-35 64 -79 99 -88 16 -5 304 -8 639 -7 607 1 610 1 645 22 19 12 44 37 55 55
19 32 20 52 21 653 0 595 0 621 -19 655 -25 46 -52 68 -96 79 -46 12 -1205 11
-1248 0z m1033 -317 c8 -2 11 -122 10 -414 l-1 -413 -415 0 -415 0 -1 410 c0
226 1 413 2 416 2 5 789 5 820 1z"/>
<path d="M3922 4884 c-22 -13 -46 -38 -54 -54 -7 -17 -15 -30 -18 -30 -3 0 -5
-21 -5 -47 1 -51 22 -99 52 -123 54 -42 42 -42 609 -41 489 0 546 2 576 17 40
21 51 32 71 71 30 57 24 118 -17 169 -51 64 -40 63 -635 63 l-538 -1 -41 -24z"/>
<path d="M3975 4018 c-128 -27 -173 -172 -83 -269 13 -14 32 -29 43 -34 16 -6
256 -17 335 -15 8 0 35 0 60 0 25 0 52 0 60 0 8 0 89 0 180 0 91 0 172 0 180
0 8 0 35 0 60 0 25 0 52 0 60 0 8 0 89 0 180 0 91 0 172 0 180 0 8 0 35 0 60
0 25 0 52 0 60 0 8 0 89 0 180 0 196 0 165 -1 275 4 50 2 91 4 93 6 1 1 6 3
11 4 21 3 72 49 87 79 44 84 -9 200 -102 223 -37 9 -1874 11 -1919 2z"/>
<path d="M1856 2723 c-2 -2 -21 -4 -42 -5 -66 -2 -122 -38 -146 -95 -16 -38
-19 -1211 -4 -1264 13 -43 50 -83 91 -99 19 -7 228 -11 636 -11 667 0 655 -1
700 60 13 17 25 39 27 49 3 9 5 291 6 626 2 597 2 611 -18 650 -20 40 -88 90
-111 82 -5 -2 -19 0 -30 4 -11 4 -25 3 -32 -2 -7 -5 -14 -5 -17 1 -4 7 -15 7
-31 1 -14 -5 -27 -5 -30 0 -3 5 -18 5 -35 0 -17 -5 -30 -6 -30 -2 0 4 -27 7
-60 7 -33 0 -60 -4 -60 -8 0 -5 -5 -5 -11 -2 -16 11 -69 12 -69 2 0 -4 -5 -5
-11 -2 -16 11 -69 12 -69 2 0 -4 -5 -5 -11 -2 -13 9 -69 13 -69 6 0 -3 -20 -6
-45 -6 -25 0 -45 2 -45 5 0 6 -89 2 -107 -4 -7 -3 -15 -1 -18 4 -3 5 -18 5
-35 0 -17 -5 -30 -6 -30 -2 0 4 -27 7 -60 7 -33 0 -60 -4 -60 -8 0 -5 -5 -5
-11 -2 -14 9 -69 13 -69 5 0 -4 -20 -4 -45 0 -25 4 -47 5 -49 3z m273 -328 c5
-3 12 -1 16 5 4 6 11 8 16 4 15 -9 129 -10 129 -1 0 5 5 5 11 2 13 -9 69 -13
69 -6 0 3 20 6 45 6 25 0 45 -4 45 -8 0 -5 4 -5 10 -2 13 8 108 11 115 3 4 -3
20 -2 36 2 16 5 29 6 29 2 0 -9 103 -7 118 2 6 3 13 2 17 -4 4 -6 10 -8 14 -6
4 3 8 -181 8 -409 l0 -415 -56 0 c-87 -1 -723 -1 -751 0 l-26 0 1 412 0 413
29 5 c36 6 112 3 125 -5z"/>
<path d="M3932 2578 c-76 -39 -108 -135 -71 -210 21 -41 63 -78 90 -78 11 0
19 -3 19 -7 0 -13 1911 -8 1942 5 89 37 125 147 75 233 -45 78 25 73 -1055 75
-928 1 -963 0 -1000 -18z"/>
<path d="M3979 1709 c-48 -8 -74 -24 -105 -64 -56 -73 -27 -191 56 -232 32
-16 105 -18 1001 -18 l966 -1 36 23 c44 28 67 60 74 105 3 18 6 35 8 37 8 7
-29 87 -49 106 -51 50 -8 48 -1012 49 -518 0 -956 -2 -975 -5z"/>
</g>
</svg>
